<svg width="100" height="68" viewBox="0 0 100 68" fill="none" xmlns="http://www.w3.org/2000/svg">
<rect width="100" height="68" fill="black"/>
<path d="M10.6543 31.293C8.68164 31.293 7.16797 30.707 6.11328 29.5352C5.05859 28.3535 4.52148 26.625 4.50195 24.3496V22.4307C4.50195 20.0674 5.01465 18.2168 6.04004 16.8789C7.0752 15.5312 8.51562 14.8574 10.3613 14.8574C12.2168 14.8574 13.6035 15.4482 14.5215 16.6299C15.4395 17.8115 15.9082 19.6523 15.9277 22.1523V23.8516H7.08008V24.2178C7.08008 25.917 7.39746 27.1523 8.03223 27.9238C8.67676 28.6953 9.59961 29.0811 10.8008 29.0811C11.5625 29.0811 12.2314 28.9395 12.8076 28.6562C13.3936 28.3633 13.9404 27.9043 14.4482 27.2793L15.7959 28.9199C14.6729 30.502 12.959 31.293 10.6543 31.293ZM10.3613 17.084C9.28711 17.084 8.49121 17.4551 7.97363 18.1973C7.45605 18.9297 7.16309 20.0723 7.09473 21.625H13.335V21.2734C13.2666 19.7695 12.9932 18.6953 12.5146 18.0508C12.0459 17.4062 11.3281 17.084 10.3613 17.084ZM27.1338 29.6084C26.2744 30.7314 25.0195 31.293 23.3691 31.293C21.9336 31.293 20.8496 30.7998 20.1172 29.8135C19.3848 28.8174 19.0137 27.3721 19.0039 25.4775V15.1504H21.582V25.2871C21.582 27.7578 22.3242 28.9932 23.8086 28.9932C25.3809 28.9932 26.4648 28.29 27.0605 26.8838V15.1504H29.6533V31H27.1924L27.1338 29.6084ZM33.0371 22.3574C33.0371 19.8867 33.4863 18.0215 34.3848 16.7617C35.2832 15.4922 36.5967 14.8574 38.3252 14.8574C39.9365 14.8574 41.1621 15.5459 42.002 16.9229L42.1338 15.1504H44.4775V31.1465C44.4775 33.1094 43.9746 34.6133 42.9688 35.6582C41.9629 36.7129 40.5615 37.2402 38.7646 37.2402C37.9834 37.2402 37.1045 37.0449 36.1279 36.6543C35.1611 36.2734 34.4336 35.7998 33.9453 35.2334L35 33.4463C36.0742 34.501 37.2607 35.0283 38.5596 35.0283C40.7178 35.0283 41.8262 33.8516 41.8848 31.498V29.4326C41.0449 30.6729 39.8535 31.293 38.3105 31.293C36.6699 31.293 35.3906 30.6777 34.4727 29.4473C33.5547 28.207 33.0762 26.4297 33.0371 24.1152V22.3574ZM35.6299 23.8369C35.6299 25.6143 35.8887 26.9229 36.4062 27.7627C36.9336 28.5928 37.793 29.0078 38.9844 29.0078C40.2734 29.0078 41.2402 28.3486 41.8848 27.0303V19.1055C41.2109 17.8066 40.2539 17.1572 39.0137 17.1572C37.8223 17.1572 36.9629 17.5771 36.4355 18.417C35.9082 19.2471 35.6396 20.5264 35.6299 22.2549V23.8369ZM54.0137 31.293C52.041 31.293 50.5273 30.707 49.4727 29.5352C48.418 28.3535 47.8809 26.625 47.8613 24.3496V22.4307C47.8613 20.0674 48.374 18.2168 49.3994 16.8789C50.4346 15.5312 51.875 14.8574 53.7207 14.8574C55.5762 14.8574 56.9629 15.4482 57.8809 16.6299C58.7988 17.8115 59.2676 19.6523 59.2871 22.1523V23.8516H50.4395V24.2178C50.4395 25.917 50.7568 27.1523 51.3916 27.9238C52.0361 28.6953 52.959 29.0811 54.1602 29.0811C54.9219 29.0811 55.5908 28.9395 56.167 28.6562C56.7529 28.3633 57.2998 27.9043 57.8076 27.2793L59.1553 28.9199C58.0322 30.502 56.3184 31.293 54.0137 31.293ZM53.7207 17.084C52.6465 17.084 51.8506 17.4551 51.333 18.1973C50.8154 18.9297 50.5225 20.0723 50.4541 21.625H56.6943V21.2734C56.626 19.7695 56.3525 18.6953 55.874 18.0508C55.4053 17.4062 54.6875 17.084 53.7207 17.084ZM64.8535 15.1504L64.9268 16.8643C65.9326 15.5264 67.2168 14.8574 68.7793 14.8574C71.582 14.8574 73.0029 16.7275 73.042 20.4678V31H70.4639V20.585C70.4639 19.3447 70.2539 18.4658 69.834 17.9482C69.4238 17.4209 68.8037 17.1572 67.9736 17.1572C67.3291 17.1572 66.748 17.3721 66.2305 17.8018C65.7227 18.2314 65.3125 18.793 65 19.4863V31H62.4072V15.1504H64.8535ZM79.7363 31H77.1436V15.1504H79.7363V31ZM79.9414 10.9463C79.9414 11.3857 79.8193 11.752 79.5752 12.0449C79.3311 12.3379 78.96 12.4844 78.4619 12.4844C77.9736 12.4844 77.6074 12.3379 77.3633 12.0449C77.1191 11.752 76.9971 11.3857 76.9971 10.9463C76.9971 10.5068 77.1191 10.1357 77.3633 9.83301C77.6074 9.53027 77.9736 9.37891 78.4619 9.37891C78.9502 9.37891 79.3164 9.53516 79.5605 9.84766C79.8145 10.1504 79.9414 10.5166 79.9414 10.9463ZM83.2812 22.3428C83.2812 20.0381 83.8379 18.2168 84.9512 16.8789C86.0742 15.5312 87.5537 14.8574 89.3896 14.8574C91.2256 14.8574 92.7002 15.5117 93.8135 16.8203C94.9365 18.1289 95.5127 19.9111 95.542 22.167V23.8369C95.542 26.1318 94.9854 27.9482 93.8721 29.2861C92.7588 30.624 91.2744 31.293 89.4189 31.293C87.583 31.293 86.1084 30.6436 84.9951 29.3447C83.8916 28.0459 83.3203 26.2881 83.2812 24.0713V22.3428ZM85.874 23.8369C85.874 25.4678 86.1914 26.752 86.8262 27.6895C87.4707 28.6172 88.335 29.0811 89.4189 29.0811C91.7041 29.0811 92.8809 27.4307 92.9492 24.1299V22.3428C92.9492 20.7217 92.627 19.4424 91.9824 18.5049C91.3379 17.5576 90.4736 17.084 89.3896 17.084C88.3252 17.084 87.4707 17.5576 86.8262 18.5049C86.1914 19.4424 85.874 20.7168 85.874 22.3281V23.8369Z" fill="#58C5FF"/>
<path d="M22.4609 46.8184C22.1598 46.7614 21.8343 46.7329 21.4844 46.7329C20.3776 46.7329 19.6045 47.3392 19.165 48.5518V58H17.0044V44.792H19.104L19.1406 46.1348C19.7184 45.0768 20.5363 44.5479 21.5942 44.5479C21.936 44.5479 22.2209 44.6048 22.4487 44.7188L22.4609 46.8184ZM23.9258 50.7856C23.9258 48.8651 24.3896 47.3473 25.3174 46.2324C26.2533 45.1094 27.4862 44.5479 29.0161 44.5479C30.5461 44.5479 31.7749 45.0931 32.7026 46.1836C33.6385 47.2741 34.1187 48.7593 34.1431 50.6392V52.0308C34.1431 53.9432 33.6792 55.4569 32.7515 56.5718C31.8237 57.6867 30.5868 58.2441 29.0405 58.2441C27.5106 58.2441 26.2817 57.703 25.354 56.6206C24.4344 55.5382 23.9583 54.0734 23.9258 52.2261V50.7856ZM26.0864 52.0308C26.0864 53.3898 26.3509 54.46 26.8799 55.2412C27.417 56.0143 28.1372 56.4009 29.0405 56.4009C30.9448 56.4009 31.9255 55.0256 31.9824 52.2749V50.7856C31.9824 49.4347 31.7139 48.3687 31.1768 47.5874C30.6396 46.798 29.9194 46.4033 29.0161 46.4033C28.1291 46.4033 27.417 46.798 26.8799 47.5874C26.3509 48.3687 26.0864 49.4307 26.0864 50.7734V52.0308ZM43.3472 54.6187C43.3472 54.1548 43.1722 53.756 42.8223 53.4224C42.4723 53.0887 41.7969 52.6981 40.7959 52.2505C39.6322 51.7703 38.8102 51.3594 38.3301 51.0176C37.8581 50.6758 37.5041 50.2892 37.2681 49.8579C37.0321 49.4185 36.9141 48.8976 36.9141 48.2954C36.9141 47.2212 37.3047 46.3301 38.0859 45.6221C38.8753 44.9059 39.8804 44.5479 41.1011 44.5479C42.3869 44.5479 43.4204 44.9222 44.2017 45.6709C44.9829 46.4196 45.3735 47.3799 45.3735 48.5518H43.2251C43.2251 47.9577 43.0257 47.4531 42.627 47.0381C42.2282 46.6149 41.7196 46.4033 41.1011 46.4033C40.4663 46.4033 39.9658 46.5701 39.5996 46.9038C39.2415 47.2293 39.0625 47.6688 39.0625 48.2222C39.0625 48.6616 39.1927 49.0156 39.4531 49.2842C39.7217 49.5527 40.3605 49.9067 41.3696 50.3462C42.9728 50.9728 44.0633 51.5872 44.6411 52.1895C45.2189 52.7835 45.5078 53.5404 45.5078 54.46C45.5078 55.6074 45.1131 56.527 44.3237 57.2188C43.5343 57.9023 42.4764 58.2441 41.1499 58.2441C39.7746 58.2441 38.6597 57.8494 37.8052 57.0601C36.9507 56.2707 36.5234 55.2697 36.5234 54.0571H38.6963C38.7207 54.7896 38.9445 55.3633 39.3677 55.7783C39.7909 56.1934 40.3849 56.4009 41.1499 56.4009C41.866 56.4009 42.4113 56.2422 42.7856 55.9248C43.16 55.5993 43.3472 55.1639 43.3472 54.6187ZM55.127 58C54.9967 57.7152 54.9032 57.235 54.8462 56.5596C54.0812 57.6826 53.1047 58.2441 51.9165 58.2441C50.7202 58.2441 49.7843 57.9105 49.1089 57.2432C48.4416 56.5677 48.1079 55.6196 48.1079 54.3989C48.1079 53.0562 48.5636 51.9901 49.4751 51.2007C50.3866 50.4113 51.6357 50.0085 53.2227 49.9922H54.8096V48.5884C54.8096 47.799 54.6346 47.2375 54.2847 46.9038C53.9347 46.5701 53.4017 46.4033 52.6855 46.4033C52.0345 46.4033 51.5055 46.5986 51.0986 46.9893C50.6917 47.3717 50.4883 47.86 50.4883 48.4541H48.3276C48.3276 47.7786 48.527 47.1357 48.9258 46.5254C49.3245 45.9069 49.8617 45.4227 50.5371 45.0728C51.2126 44.7228 51.9653 44.5479 52.7954 44.5479C54.1463 44.5479 55.1717 44.8856 55.8716 45.561C56.5796 46.2284 56.9417 47.2049 56.958 48.4907V55.1558C56.9661 56.173 57.1045 57.056 57.373 57.8047V58H55.127ZM52.2461 56.2788C52.7751 56.2788 53.2796 56.1323 53.7598 55.8394C54.2399 55.5464 54.5898 55.1802 54.8096 54.7407V51.5913H53.5889C52.5635 51.6076 51.7537 51.8395 51.1597 52.2871C50.5656 52.7266 50.2686 53.3451 50.2686 54.1426C50.2686 54.8913 50.4191 55.4365 50.7202 55.7783C51.0213 56.112 51.5299 56.2788 52.2461 56.2788ZM65.7715 46.8184C65.4704 46.7614 65.1449 46.7329 64.7949 46.7329C63.6882 46.7329 62.915 47.3392 62.4756 48.5518V58H60.3149V44.792H62.4146L62.4512 46.1348C63.029 45.0768 63.8468 44.5479 64.9048 44.5479C65.2466 44.5479 65.5314 44.6048 65.7593 44.7188L65.7715 46.8184ZM70.2637 58H68.103V44.792H70.2637V58ZM70.4346 41.2886C70.4346 41.6548 70.3328 41.96 70.1294 42.2041C69.9259 42.4482 69.6167 42.5703 69.2017 42.5703C68.7948 42.5703 68.4896 42.4482 68.2861 42.2041C68.0827 41.96 67.981 41.6548 67.981 41.2886C67.981 40.9224 68.0827 40.6131 68.2861 40.3608C68.4896 40.1086 68.7948 39.9824 69.2017 39.9824C69.6086 39.9824 69.9137 40.1126 70.1172 40.373C70.3288 40.6253 70.4346 40.9305 70.4346 41.2886ZM73.2178 50.7856C73.2178 48.8651 73.6816 47.3473 74.6094 46.2324C75.5452 45.1094 76.7782 44.5479 78.3081 44.5479C79.8381 44.5479 81.0669 45.0931 81.9946 46.1836C82.9305 47.2741 83.4106 48.7593 83.4351 50.6392V52.0308C83.4351 53.9432 82.9712 55.4569 82.0435 56.5718C81.1157 57.6867 79.8787 58.2441 78.3325 58.2441C76.8026 58.2441 75.5737 57.703 74.646 56.6206C73.7264 55.5382 73.2503 54.0734 73.2178 52.2261V50.7856ZM75.3784 52.0308C75.3784 53.3898 75.6429 54.46 76.1719 55.2412C76.709 56.0143 77.4292 56.4009 78.3325 56.4009C80.2368 56.4009 81.2174 55.0256 81.2744 52.2749V50.7856C81.2744 49.4347 81.0059 48.3687 80.4688 47.5874C79.9316 46.798 79.2114 46.4033 78.3081 46.4033C77.4211 46.4033 76.709 46.798 76.1719 47.5874C75.6429 48.3687 75.3784 49.4307 75.3784 50.7734V52.0308Z" fill="#58C5FF"/>
</svg>
