<svg width="91" height="68" viewBox="0 0 91 68" fill="none" xmlns="http://www.w3.org/2000/svg">
<rect x="1" width="90" height="68" fill="black"/>
<path d="M7.55859 35.3398L12.041 37.5635V39.2861L6.0293 35.9551V34.6719L12.041 31.3496V33.0723L7.55859 35.3398ZM17.9297 41.1758C16.7461 41.1758 15.8379 40.8242 15.2051 40.1211C14.5723 39.4121 14.25 38.375 14.2383 37.0098V35.8584C14.2383 34.4404 14.5459 33.3301 15.1611 32.5273C15.7822 31.7188 16.6465 31.3145 17.7539 31.3145C18.8672 31.3145 19.6992 31.6689 20.25 32.3779C20.8008 33.0869 21.082 34.1914 21.0938 35.6914V36.7109H15.7852V36.9307C15.7852 37.9502 15.9756 38.6914 16.3564 39.1543C16.7432 39.6172 17.2969 39.8486 18.0176 39.8486C18.4746 39.8486 18.876 39.7637 19.2217 39.5938C19.5732 39.418 19.9014 39.1426 20.2061 38.7676L21.0146 39.752C20.3408 40.7012 19.3125 41.1758 17.9297 41.1758ZM17.7539 32.6504C17.1094 32.6504 16.6318 32.873 16.3213 33.3184C16.0107 33.7578 15.835 34.4434 15.7939 35.375H19.5381V35.1641C19.4971 34.2617 19.333 33.6172 19.0459 33.2305C18.7646 32.8438 18.334 32.6504 17.7539 32.6504ZM27.8174 40.165C27.3018 40.8389 26.5488 41.1758 25.5586 41.1758C24.6973 41.1758 24.0469 40.8799 23.6074 40.2881C23.168 39.6904 22.9453 38.8232 22.9395 37.6865V31.4902H24.4863V37.5723C24.4863 39.0547 24.9316 39.7959 25.8223 39.7959C26.7656 39.7959 27.416 39.374 27.7734 38.5303V31.4902H29.3291V41H27.8525L27.8174 40.165ZM31.3594 35.8145C31.3594 34.332 31.6289 33.2129 32.168 32.457C32.707 31.6953 33.4951 31.3145 34.5322 31.3145C35.499 31.3145 36.2344 31.7275 36.7383 32.5537L36.8174 31.4902H38.2236V41.0879C38.2236 42.2656 37.9219 43.168 37.3184 43.7949C36.7148 44.4277 35.874 44.7441 34.7959 44.7441C34.3271 44.7441 33.7998 44.627 33.2139 44.3926C32.6338 44.1641 32.1973 43.8799 31.9043 43.54L32.5371 42.4678C33.1816 43.1006 33.8936 43.417 34.6729 43.417C35.9678 43.417 36.6328 42.7109 36.668 41.2988V40.0596C36.1641 40.8037 35.4492 41.1758 34.5234 41.1758C33.5391 41.1758 32.7715 40.8066 32.2207 40.0684C31.6699 39.3242 31.3828 38.2578 31.3594 36.8691V35.8145ZM32.915 36.7021C32.915 37.7686 33.0703 38.5537 33.3809 39.0576C33.6973 39.5557 34.2129 39.8047 34.9277 39.8047C35.7012 39.8047 36.2812 39.4092 36.668 38.6182V33.8633C36.2637 33.084 35.6895 32.6943 34.9453 32.6943C34.2305 32.6943 33.7148 32.9463 33.3984 33.4502C33.082 33.9482 32.9209 34.7158 32.915 35.7529V36.7021ZM43.9453 41.1758C42.7617 41.1758 41.8535 40.8242 41.2207 40.1211C40.5879 39.4121 40.2656 38.375 40.2539 37.0098V35.8584C40.2539 34.4404 40.5615 33.3301 41.1768 32.5273C41.7979 31.7188 42.6621 31.3145 43.7695 31.3145C44.8828 31.3145 45.7148 31.6689 46.2656 32.3779C46.8164 33.0869 47.0977 34.1914 47.1094 35.6914V36.7109H41.8008V36.9307C41.8008 37.9502 41.9912 38.6914 42.3721 39.1543C42.7588 39.6172 43.3125 39.8486 44.0332 39.8486C44.4902 39.8486 44.8916 39.7637 45.2373 39.5938C45.5889 39.418 45.917 39.1426 46.2217 38.7676L47.0303 39.752C46.3564 40.7012 45.3281 41.1758 43.9453 41.1758ZM43.7695 32.6504C43.125 32.6504 42.6475 32.873 42.3369 33.3184C42.0264 33.7578 41.8506 34.4434 41.8096 35.375H45.5537V35.1641C45.5127 34.2617 45.3486 33.6172 45.0615 33.2305C44.7803 32.8438 44.3496 32.6504 43.7695 32.6504ZM50.4492 31.4902L50.4932 32.5186C51.0967 31.7158 51.8672 31.3145 52.8047 31.3145C54.4863 31.3145 55.3389 32.4365 55.3623 34.6807V41H53.8154V34.751C53.8154 34.0068 53.6895 33.4795 53.4375 33.1689C53.1914 32.8525 52.8193 32.6943 52.3213 32.6943C51.9346 32.6943 51.5859 32.8232 51.2754 33.0811C50.9707 33.3389 50.7246 33.6758 50.5371 34.0918V41H48.9814V31.4902H50.4492ZM59.3789 41H57.8232V31.4902H59.3789V41ZM59.502 28.9678C59.502 29.2314 59.4287 29.4512 59.2822 29.627C59.1357 29.8027 58.9131 29.8906 58.6143 29.8906C58.3213 29.8906 58.1016 29.8027 57.9551 29.627C57.8086 29.4512 57.7354 29.2314 57.7354 28.9678C57.7354 28.7041 57.8086 28.4814 57.9551 28.2998C58.1016 28.1182 58.3213 28.0273 58.6143 28.0273C58.9072 28.0273 59.127 28.1211 59.2734 28.3086C59.4258 28.4902 59.502 28.71 59.502 28.9678ZM61.5059 35.8057C61.5059 34.4229 61.8398 33.3301 62.5078 32.5273C63.1816 31.7188 64.0693 31.3145 65.1709 31.3145C66.2725 31.3145 67.1572 31.707 67.8252 32.4922C68.499 33.2773 68.8447 34.3467 68.8623 35.7002V36.7021C68.8623 38.0791 68.5283 39.1689 67.8604 39.9717C67.1924 40.7744 66.3018 41.1758 65.1885 41.1758C64.0869 41.1758 63.2021 40.7861 62.5342 40.0068C61.8721 39.2275 61.5293 38.1729 61.5059 36.8428V35.8057ZM63.0615 36.7021C63.0615 37.6807 63.252 38.4512 63.6328 39.0137C64.0195 39.5703 64.5381 39.8486 65.1885 39.8486C66.5596 39.8486 67.2656 38.8584 67.3066 36.8779V35.8057C67.3066 34.833 67.1133 34.0654 66.7266 33.5029C66.3398 32.9346 65.8213 32.6504 65.1709 32.6504C64.5322 32.6504 64.0195 32.9346 63.6328 33.5029C63.252 34.0654 63.0615 34.8301 63.0615 35.7969V36.7021ZM71.2969 42.0986H69.9785L74.4697 28.2031H75.7793L71.2969 42.0986ZM82.3447 35.2783L77.5811 33.0107V31.3408L83.9092 34.6631V35.9463L77.5811 39.2773V37.5898L82.3447 35.2783Z" fill="white"/>
</svg>
