<svg width="91" height="68" viewBox="0 0 91 68" fill="none" xmlns="http://www.w3.org/2000/svg">
<rect x="1" width="90" height="68" fill="#0077B6"/>
<path d="M6.03809 35.5771L10.0195 37.3262V39.8047L3.62109 36.6055V34.5137L10.0195 31.3057V33.7842L6.03809 35.5771ZM15.8818 41.1758C14.6045 41.1758 13.6084 40.7949 12.8936 40.0332C12.1787 39.2715 11.8213 38.1816 11.8213 36.7637V36.0078C11.8213 34.5078 12.1494 33.3506 12.8057 32.5361C13.4619 31.7217 14.4023 31.3145 15.627 31.3145C16.8223 31.3145 17.7217 31.6982 18.3252 32.4658C18.9287 33.2275 19.2363 34.3584 19.248 35.8584V37.0801H14.2998C14.335 37.7832 14.4902 38.2988 14.7656 38.627C15.041 38.9492 15.4658 39.1104 16.04 39.1104C16.8721 39.1104 17.5664 38.8262 18.123 38.2578L19.0986 39.7607C18.7939 40.1826 18.3516 40.5254 17.7715 40.7891C17.1914 41.0469 16.5615 41.1758 15.8818 41.1758ZM14.3174 35.3398H16.8047V35.1113C16.793 34.543 16.6992 34.1123 16.5234 33.8193C16.3477 33.5264 16.043 33.3799 15.6094 33.3799C15.1758 33.3799 14.8594 33.5352 14.6602 33.8457C14.4668 34.1562 14.3525 34.6543 14.3174 35.3398ZM25.3301 40.1299C24.8145 40.8271 24.123 41.1758 23.2559 41.1758C22.3828 41.1758 21.7207 40.877 21.2695 40.2793C20.8184 39.6758 20.5928 38.7998 20.5928 37.6514V31.4902H23.0801V37.7129C23.0918 38.6387 23.3994 39.1016 24.0029 39.1016C24.5713 39.1016 24.9814 38.8555 25.2334 38.3633V31.4902H27.7383V41H25.4004L25.3301 40.1299ZM29.2148 35.9551C29.2148 34.3965 29.4961 33.2334 30.0586 32.4658C30.6211 31.6982 31.4092 31.3145 32.4229 31.3145C33.2842 31.3145 33.9492 31.6543 34.418 32.334L34.5146 31.4902H36.7559V41C36.7559 42.2129 36.416 43.1387 35.7363 43.7773C35.0566 44.4219 34.0811 44.7441 32.8096 44.7441C32.2881 44.7441 31.7402 44.6387 31.166 44.4277C30.5918 44.2227 30.1641 43.959 29.8828 43.6367L30.7178 41.9141C30.9521 42.1602 31.2568 42.3594 31.6318 42.5117C32.0068 42.6699 32.3613 42.749 32.6953 42.749C33.252 42.749 33.6504 42.6143 33.8906 42.3447C34.1367 42.0811 34.2627 41.6533 34.2686 41.0615V40.2441C33.7939 40.8652 33.1758 41.1758 32.4141 41.1758C31.4004 41.1758 30.6152 40.7832 30.0586 39.998C29.5078 39.207 29.2266 38.0938 29.2148 36.6582V35.9551ZM31.7021 36.5791C31.7021 37.458 31.8164 38.0996 32.0449 38.5039C32.2734 38.9023 32.6367 39.1016 33.1348 39.1016C33.6445 39.1016 34.0225 38.917 34.2686 38.5479V34.0039C34.0107 33.5996 33.6387 33.3975 33.1523 33.3975C32.6602 33.3975 32.2939 33.5996 32.0537 34.0039C31.8193 34.4082 31.7021 35.0586 31.7021 35.9551V36.5791ZM42.4072 41.1758C41.1299 41.1758 40.1338 40.7949 39.4189 40.0332C38.7041 39.2715 38.3467 38.1816 38.3467 36.7637V36.0078C38.3467 34.5078 38.6748 33.3506 39.3311 32.5361C39.9873 31.7217 40.9277 31.3145 42.1523 31.3145C43.3477 31.3145 44.2471 31.6982 44.8506 32.4658C45.4541 33.2275 45.7617 34.3584 45.7734 35.8584V37.0801H40.8252C40.8604 37.7832 41.0156 38.2988 41.291 38.627C41.5664 38.9492 41.9912 39.1104 42.5654 39.1104C43.3975 39.1104 44.0918 38.8262 44.6484 38.2578L45.624 39.7607C45.3193 40.1826 44.877 40.5254 44.2969 40.7891C43.7168 41.0469 43.0869 41.1758 42.4072 41.1758ZM40.8428 35.3398H43.3301V35.1113C43.3184 34.543 43.2246 34.1123 43.0488 33.8193C42.873 33.5264 42.5684 33.3799 42.1348 33.3799C41.7012 33.3799 41.3848 33.5352 41.1855 33.8457C40.9922 34.1562 40.8779 34.6543 40.8428 35.3398ZM49.4561 31.4902L49.5264 32.4307C50.0889 31.6865 50.8242 31.3145 51.7324 31.3145C53.3672 31.3145 54.208 32.46 54.2549 34.751V41H51.7588V34.9355C51.7588 34.3965 51.6768 34.0068 51.5127 33.7666C51.3545 33.5205 51.0732 33.3975 50.6689 33.3975C50.2178 33.3975 49.8662 33.6289 49.6143 34.0918V41H47.1182V31.4902H49.4561ZM58.6494 41H56.1533V31.4902H58.6494V41ZM56.0391 29.0293C56.0391 28.6426 56.1621 28.3262 56.4082 28.0801C56.6543 27.834 56.9824 27.7109 57.3926 27.7109C57.8027 27.7109 58.1309 27.834 58.377 28.0801C58.623 28.3262 58.7461 28.6426 58.7461 29.0293C58.7461 29.4102 58.623 29.7266 58.377 29.9785C58.1367 30.2305 57.8086 30.3564 57.3926 30.3564C56.9766 30.3564 56.6455 30.2305 56.3994 29.9785C56.1592 29.7266 56.0391 29.4102 56.0391 29.0293ZM60.2842 35.9375C60.2842 34.4961 60.624 33.3652 61.3037 32.5449C61.9834 31.7246 62.9238 31.3145 64.125 31.3145C65.3379 31.3145 66.2842 31.7246 66.9639 32.5449C67.6436 33.3652 67.9834 34.502 67.9834 35.9551V36.5615C67.9834 38.0088 67.6465 39.1396 66.9727 39.9541C66.2988 40.7686 65.3555 41.1758 64.1426 41.1758C62.9238 41.1758 61.9746 40.7686 61.2949 39.9541C60.6211 39.1338 60.2842 37.9971 60.2842 36.5439V35.9375ZM62.7803 36.5615C62.7803 38.2607 63.2344 39.1104 64.1426 39.1104C64.9805 39.1104 65.4316 38.4014 65.4961 36.9834L65.5049 35.9375C65.5049 35.0703 65.3848 34.4287 65.1445 34.0127C64.9043 33.5908 64.5645 33.3799 64.125 33.3799C63.7031 33.3799 63.3721 33.5908 63.1318 34.0127C62.8975 34.4287 62.7803 35.0703 62.7803 35.9375V36.5615ZM74.5928 42.0986H72.7734L76.6143 28.2031H78.4336L74.5928 42.0986ZM83.8652 35.542L79.8047 33.7754V31.3145L86.291 34.5137V36.6055L79.8047 39.8135V37.3525L83.8652 35.542Z" fill="white"/>
</svg>
