<svg width="91" height="68" viewBox="0 0 91 68" fill="none" xmlns="http://www.w3.org/2000/svg">
<rect x="1" width="90" height="68" fill="black"/>
<path d="M5.49316 35.3398L9.97559 37.5635V39.2861L3.96387 35.9551V34.6719L9.97559 31.3496V33.0723L5.49316 35.3398ZM15.8643 41.1758C14.6807 41.1758 13.7725 40.8242 13.1396 40.1211C12.5068 39.4121 12.1846 38.375 12.1729 37.0098V35.8584C12.1729 34.4404 12.4805 33.3301 13.0957 32.5273C13.7168 31.7188 14.5811 31.3145 15.6885 31.3145C16.8018 31.3145 17.6338 31.6689 18.1846 32.3779C18.7354 33.0869 19.0166 34.1914 19.0283 35.6914V36.7109H13.7197V36.9307C13.7197 37.9502 13.9102 38.6914 14.291 39.1543C14.6777 39.6172 15.2314 39.8486 15.9521 39.8486C16.4092 39.8486 16.8105 39.7637 17.1562 39.5938C17.5078 39.418 17.8359 39.1426 18.1406 38.7676L18.9492 39.752C18.2754 40.7012 17.2471 41.1758 15.8643 41.1758ZM15.6885 32.6504C15.0439 32.6504 14.5664 32.873 14.2559 33.3184C13.9453 33.7578 13.7695 34.4434 13.7285 35.375H17.4727V35.1641C17.4316 34.2617 17.2676 33.6172 16.9805 33.2305C16.6992 32.8438 16.2686 32.6504 15.6885 32.6504ZM25.752 40.165C25.2363 40.8389 24.4834 41.1758 23.4932 41.1758C22.6318 41.1758 21.9814 40.8799 21.542 40.2881C21.1025 39.6904 20.8799 38.8232 20.874 37.6865V31.4902H22.4209V37.5723C22.4209 39.0547 22.8662 39.7959 23.7568 39.7959C24.7002 39.7959 25.3506 39.374 25.708 38.5303V31.4902H27.2637V41H25.7871L25.752 40.165ZM29.2939 35.8145C29.2939 34.332 29.5635 33.2129 30.1025 32.457C30.6416 31.6953 31.4297 31.3145 32.4668 31.3145C33.4336 31.3145 34.1689 31.7275 34.6729 32.5537L34.752 31.4902H36.1582V41.0879C36.1582 42.2656 35.8564 43.168 35.2529 43.7949C34.6494 44.4277 33.8086 44.7441 32.7305 44.7441C32.2617 44.7441 31.7344 44.627 31.1484 44.3926C30.5684 44.1641 30.1318 43.8799 29.8389 43.54L30.4717 42.4678C31.1162 43.1006 31.8281 43.417 32.6074 43.417C33.9023 43.417 34.5674 42.7109 34.6025 41.2988V40.0596C34.0986 40.8037 33.3838 41.1758 32.458 41.1758C31.4736 41.1758 30.7061 40.8066 30.1553 40.0684C29.6045 39.3242 29.3174 38.2578 29.2939 36.8691V35.8145ZM30.8496 36.7021C30.8496 37.7686 31.0049 38.5537 31.3154 39.0576C31.6318 39.5557 32.1475 39.8047 32.8623 39.8047C33.6357 39.8047 34.2158 39.4092 34.6025 38.6182V33.8633C34.1982 33.084 33.624 32.6943 32.8799 32.6943C32.165 32.6943 31.6494 32.9463 31.333 33.4502C31.0166 33.9482 30.8555 34.7158 30.8496 35.7529V36.7021ZM41.8799 41.1758C40.6963 41.1758 39.7881 40.8242 39.1553 40.1211C38.5225 39.4121 38.2002 38.375 38.1885 37.0098V35.8584C38.1885 34.4404 38.4961 33.3301 39.1113 32.5273C39.7324 31.7188 40.5967 31.3145 41.7041 31.3145C42.8174 31.3145 43.6494 31.6689 44.2002 32.3779C44.751 33.0869 45.0322 34.1914 45.0439 35.6914V36.7109H39.7354V36.9307C39.7354 37.9502 39.9258 38.6914 40.3066 39.1543C40.6934 39.6172 41.2471 39.8486 41.9678 39.8486C42.4248 39.8486 42.8262 39.7637 43.1719 39.5938C43.5234 39.418 43.8516 39.1426 44.1562 38.7676L44.9648 39.752C44.291 40.7012 43.2627 41.1758 41.8799 41.1758ZM41.7041 32.6504C41.0596 32.6504 40.582 32.873 40.2715 33.3184C39.9609 33.7578 39.7852 34.4434 39.7441 35.375H43.4883V35.1641C43.4473 34.2617 43.2832 33.6172 42.9961 33.2305C42.7148 32.8438 42.2842 32.6504 41.7041 32.6504ZM48.3838 31.4902L48.4277 32.5186C49.0312 31.7158 49.8018 31.3145 50.7393 31.3145C52.4209 31.3145 53.2734 32.4365 53.2969 34.6807V41H51.75V34.751C51.75 34.0068 51.624 33.4795 51.3721 33.1689C51.126 32.8525 50.7539 32.6943 50.2559 32.6943C49.8691 32.6943 49.5205 32.8232 49.21 33.0811C48.9053 33.3389 48.6592 33.6758 48.4717 34.0918V41H46.916V31.4902H48.3838ZM57.3135 41H55.7578V31.4902H57.3135V41ZM57.4365 28.9678C57.4365 29.2314 57.3633 29.4512 57.2168 29.627C57.0703 29.8027 56.8477 29.8906 56.5488 29.8906C56.2559 29.8906 56.0361 29.8027 55.8896 29.627C55.7432 29.4512 55.6699 29.2314 55.6699 28.9678C55.6699 28.7041 55.7432 28.4814 55.8896 28.2998C56.0361 28.1182 56.2559 28.0273 56.5488 28.0273C56.8418 28.0273 57.0615 28.1211 57.208 28.3086C57.3604 28.4902 57.4365 28.71 57.4365 28.9678ZM59.4404 35.8057C59.4404 34.4229 59.7744 33.3301 60.4424 32.5273C61.1162 31.7188 62.0039 31.3145 63.1055 31.3145C64.207 31.3145 65.0918 31.707 65.7598 32.4922C66.4336 33.2773 66.7793 34.3467 66.7969 35.7002V36.7021C66.7969 38.0791 66.4629 39.1689 65.7949 39.9717C65.127 40.7744 64.2363 41.1758 63.123 41.1758C62.0215 41.1758 61.1367 40.7861 60.4688 40.0068C59.8066 39.2275 59.4639 38.1729 59.4404 36.8428V35.8057ZM60.9961 36.7021C60.9961 37.6807 61.1865 38.4512 61.5674 39.0137C61.9541 39.5703 62.4727 39.8486 63.123 39.8486C64.4941 39.8486 65.2002 38.8584 65.2412 36.8779V35.8057C65.2412 34.833 65.0479 34.0654 64.6611 33.5029C64.2744 32.9346 63.7559 32.6504 63.1055 32.6504C62.4668 32.6504 61.9541 32.9346 61.5674 33.5029C61.1865 34.0654 60.9961 34.8301 60.9961 35.7969V36.7021ZM73.3623 42.0986H72.0439L76.5352 28.2031H77.8447L73.3623 42.0986ZM84.4102 35.2783L79.6465 33.0107V31.3408L85.9746 34.6631V35.9463L79.6465 39.2773V37.5898L84.4102 35.2783Z" fill="white"/>
</svg>
