<svg width="90" height="68" viewBox="0 0 90 68" fill="none" xmlns="http://www.w3.org/2000/svg">
<rect width="90" height="68" fill="black"/>
<path d="M12.2119 29.2441C10.568 29.2441 9.30664 28.7559 8.42773 27.7793C7.54883 26.7946 7.10124 25.3542 7.08496 23.458V21.8589C7.08496 19.8895 7.51221 18.3473 8.3667 17.2324C9.22933 16.1094 10.4297 15.5479 11.9678 15.5479C13.514 15.5479 14.6696 16.0402 15.4346 17.0249C16.1995 18.0096 16.5902 19.5436 16.6064 21.627V23.043H9.2334V23.3481C9.2334 24.7642 9.49788 25.7936 10.0269 26.4365C10.564 27.0794 11.333 27.4009 12.334 27.4009C12.9688 27.4009 13.5262 27.2829 14.0063 27.0469C14.4946 26.8027 14.9504 26.4202 15.3735 25.8994L16.4966 27.2666C15.5607 28.585 14.1325 29.2441 12.2119 29.2441ZM11.9678 17.4033C11.0726 17.4033 10.4093 17.7126 9.97803 18.3311C9.54671 18.9414 9.30257 19.8936 9.24561 21.1875H14.4458V20.8945C14.3888 19.6413 14.161 18.7461 13.7622 18.209C13.3716 17.6719 12.7734 17.4033 11.9678 17.4033ZM25.9448 27.8403C25.2287 28.7762 24.1829 29.2441 22.8076 29.2441C21.6113 29.2441 20.708 28.8332 20.0977 28.0112C19.4873 27.1812 19.1781 25.9767 19.1699 24.3979V15.792H21.3184V24.2393C21.3184 26.2982 21.9368 27.3276 23.1738 27.3276C24.484 27.3276 25.3874 26.7417 25.8838 25.5698V15.792H28.0444V29H25.9937L25.9448 27.8403ZM30.8643 21.7979C30.8643 19.7389 31.2386 18.1846 31.9873 17.1348C32.736 16.0768 33.8306 15.5479 35.271 15.5479C36.6138 15.5479 37.6351 16.1216 38.335 17.269L38.4448 15.792H40.3979V29.1221C40.3979 30.7578 39.9788 32.0111 39.1406 32.8818C38.3024 33.7607 37.1346 34.2002 35.6372 34.2002C34.9862 34.2002 34.2537 34.0374 33.4399 33.7119C32.6343 33.3945 32.028 32.9998 31.6211 32.5278L32.5 31.0386C33.3952 31.9175 34.384 32.3569 35.4663 32.3569C37.2648 32.3569 38.1885 31.3763 38.2373 29.415V27.6938C37.5374 28.7274 36.5446 29.2441 35.2588 29.2441C33.8916 29.2441 32.8255 28.7314 32.0605 27.7061C31.2956 26.6725 30.8968 25.1914 30.8643 23.2627V21.7979ZM33.0249 23.0308C33.0249 24.5119 33.2406 25.6024 33.6719 26.3022C34.1113 26.994 34.8275 27.3398 35.8203 27.3398C36.8945 27.3398 37.7002 26.7905 38.2373 25.6919V19.0879C37.6758 18.0055 36.8783 17.4644 35.8447 17.4644C34.8519 17.4644 34.1357 17.8143 33.6963 18.5142C33.2568 19.2059 33.033 20.272 33.0249 21.7124V23.0308ZM48.3447 29.2441C46.7008 29.2441 45.4395 28.7559 44.5605 27.7793C43.6816 26.7946 43.234 25.3542 43.2178 23.458V21.8589C43.2178 19.8895 43.645 18.3473 44.4995 17.2324C45.3621 16.1094 46.5625 15.5479 48.1006 15.5479C49.6468 15.5479 50.8024 16.0402 51.5674 17.0249C52.3324 18.0096 52.723 19.5436 52.7393 21.627V23.043H45.3662V23.3481C45.3662 24.7642 45.6307 25.7936 46.1597 26.4365C46.6968 27.0794 47.4658 27.4009 48.4668 27.4009C49.1016 27.4009 49.659 27.2829 50.1392 27.0469C50.6274 26.8027 51.0832 26.4202 51.5063 25.8994L52.6294 27.2666C51.6935 28.585 50.2653 29.2441 48.3447 29.2441ZM48.1006 17.4033C47.2054 17.4033 46.5422 17.7126 46.1108 18.3311C45.6795 18.9414 45.4354 19.8936 45.3784 21.1875H50.5786V20.8945C50.5216 19.6413 50.2938 18.7461 49.895 18.209C49.5044 17.6719 48.9062 17.4033 48.1006 17.4033ZM57.3779 15.792L57.439 17.2202C58.2772 16.1053 59.3473 15.5479 60.6494 15.5479C62.985 15.5479 64.1691 17.1063 64.2017 20.2231V29H62.0532V20.3208C62.0532 19.2873 61.8783 18.5549 61.5283 18.1235C61.1865 17.6841 60.6698 17.4644 59.978 17.4644C59.4409 17.4644 58.9567 17.6434 58.5254 18.0015C58.1022 18.3595 57.7604 18.8275 57.5 19.4053V29H55.3394V15.792H57.3779ZM69.7803 29H67.6196V15.792H69.7803V29ZM69.9512 12.2886C69.9512 12.6548 69.8494 12.96 69.646 13.2041C69.4425 13.4482 69.1333 13.5703 68.7183 13.5703C68.3114 13.5703 68.0062 13.4482 67.8027 13.2041C67.5993 12.96 67.4976 12.6548 67.4976 12.2886C67.4976 11.9224 67.5993 11.6131 67.8027 11.3608C68.0062 11.1086 68.3114 10.9824 68.7183 10.9824C69.1252 10.9824 69.4303 11.1126 69.6338 11.373C69.8454 11.6253 69.9512 11.9305 69.9512 12.2886ZM72.7344 21.7856C72.7344 19.8651 73.1982 18.3473 74.126 17.2324C75.0618 16.1094 76.2948 15.5479 77.8247 15.5479C79.3547 15.5479 80.5835 16.0931 81.5112 17.1836C82.4471 18.2741 82.9272 19.7593 82.9517 21.6392V23.0308C82.9517 24.9432 82.4878 26.4569 81.5601 27.5718C80.6323 28.6867 79.3953 29.2441 77.8491 29.2441C76.3192 29.2441 75.0903 28.703 74.1626 27.6206C73.243 26.5382 72.7669 25.0734 72.7344 23.2261V21.7856ZM74.895 23.0308C74.895 24.3898 75.1595 25.46 75.6885 26.2412C76.2256 27.0143 76.9458 27.4009 77.8491 27.4009C79.7534 27.4009 80.734 26.0256 80.791 23.2749V21.7856C80.791 20.4347 80.5225 19.3687 79.9854 18.5874C79.4482 17.798 78.728 17.4033 77.8247 17.4033C76.9377 17.4033 76.2256 17.798 75.6885 18.5874C75.1595 19.3687 74.895 20.4307 74.895 21.7734V23.0308Z" fill="white"/>
<path d="M21.3779 46.4941C21.0915 46.444 20.8408 46.4189 20.626 46.4189C19.9671 46.4189 19.4121 46.6445 18.9609 47.0957C18.5169 47.5469 18.2018 48.1735 18.0156 48.9756V57H16.8232V45.377H17.9941L18.0156 47.1172C18.5814 45.8138 19.4694 45.1621 20.6797 45.1621C20.9948 45.1621 21.2347 45.2087 21.3994 45.3018L21.3779 46.4941ZM22.8174 50.5977C22.8174 48.9219 23.1969 47.597 23.9561 46.623C24.7152 45.6491 25.75 45.1621 27.0605 45.1621C28.3783 45.1621 29.4131 45.6419 30.165 46.6016C30.9242 47.5612 31.3073 48.8825 31.3145 50.5654V51.8008C31.3145 53.5052 30.9313 54.8337 30.165 55.7861C29.4059 56.7386 28.3783 57.2148 27.082 57.2148C25.7858 57.2148 24.7581 56.7493 23.999 55.8184C23.2399 54.8874 22.846 53.6055 22.8174 51.9727V50.5977ZM24.0205 51.8008C24.0205 53.14 24.2891 54.1927 24.8262 54.959C25.3704 55.7253 26.1224 56.1084 27.082 56.1084C28.0632 56.1084 28.8115 55.7396 29.3271 55.002C29.8499 54.2643 30.1149 53.208 30.1221 51.833V50.5977C30.1221 49.2585 29.8499 48.2057 29.3057 47.4395C28.7614 46.666 28.013 46.2793 27.0605 46.2793C26.1367 46.2793 25.4027 46.6553 24.8584 47.4072C24.3141 48.1592 24.0348 49.194 24.0205 50.5117V51.8008ZM39.8867 54.1426C39.8867 53.6413 39.679 53.2044 39.2637 52.832C38.8483 52.4525 38.1429 52.0407 37.1475 51.5967C36.1592 51.1455 35.4681 50.7731 35.0742 50.4795C34.6803 50.1787 34.3903 49.8529 34.2041 49.502C34.0179 49.151 33.9248 48.7357 33.9248 48.2559C33.9248 47.3607 34.2471 46.623 34.8916 46.043C35.5361 45.4557 36.3704 45.1621 37.3945 45.1621C38.4974 45.1621 39.3783 45.4736 40.0371 46.0967C40.696 46.7197 41.0254 47.5433 41.0254 48.5674H39.833C39.833 47.9085 39.6074 47.3643 39.1562 46.9346C38.7051 46.4977 38.1178 46.2793 37.3945 46.2793C36.6927 46.2793 36.1341 46.4583 35.7188 46.8164C35.3105 47.1745 35.1064 47.64 35.1064 48.2129C35.1064 48.6784 35.264 49.0579 35.5791 49.3516C35.8942 49.6452 36.5745 50.0426 37.6201 50.5439C38.7015 51.0166 39.4463 51.4069 39.8545 51.7148C40.2627 52.0228 40.5706 52.3665 40.7783 52.7461C40.986 53.1185 41.0898 53.5625 41.0898 54.0781C41.0898 55.0378 40.7568 55.8005 40.0908 56.3662C39.4248 56.932 38.5475 57.2148 37.459 57.2148C36.306 57.2148 35.3714 56.8997 34.6553 56.2695C33.9463 55.6393 33.5918 54.8265 33.5918 53.8311H34.7949C34.8307 54.5544 35.0706 55.1165 35.5146 55.5176C35.9658 55.9115 36.6139 56.1084 37.459 56.1084C38.1895 56.1084 38.7767 55.9294 39.2207 55.5713C39.6647 55.2132 39.8867 54.737 39.8867 54.1426ZM50.0381 57C49.9307 56.6276 49.859 56.0905 49.8232 55.3887C49.4652 55.9688 49.0033 56.4199 48.4375 56.7422C47.8789 57.0573 47.2702 57.2148 46.6113 57.2148C45.6087 57.2148 44.8281 56.932 44.2695 56.3662C43.7109 55.8005 43.4316 54.9948 43.4316 53.9492C43.4316 52.8105 43.8184 51.9082 44.5918 51.2422C45.3724 50.5762 46.4466 50.2396 47.8145 50.2324H49.8125V48.6104C49.8125 47.7796 49.6048 47.1852 49.1895 46.8271C48.7812 46.4619 48.1797 46.2793 47.3848 46.2793C46.6471 46.2793 46.042 46.4941 45.5693 46.9238C45.0967 47.3535 44.8604 47.9085 44.8604 48.5889L43.668 48.5781C43.668 47.6257 44.026 46.82 44.7422 46.1611C45.4583 45.4951 46.3571 45.1621 47.4385 45.1621C48.6058 45.1621 49.4902 45.4557 50.0918 46.043C50.6934 46.6302 50.9941 47.486 50.9941 48.6104V54.3145C50.9941 55.4531 51.098 56.3053 51.3057 56.8711V57H50.0381ZM46.7617 56.0654C47.4635 56.0654 48.083 55.8828 48.6201 55.5176C49.1644 55.1523 49.5618 54.6654 49.8125 54.0566V51.2314H47.9219C46.8333 51.2458 46.0133 51.4893 45.4619 51.9619C44.9105 52.4274 44.6348 53.0576 44.6348 53.8525C44.6348 55.3278 45.3438 56.0654 46.7617 56.0654ZM58.8037 46.4941C58.5173 46.444 58.2666 46.4189 58.0518 46.4189C57.3929 46.4189 56.8379 46.6445 56.3867 47.0957C55.9427 47.5469 55.6276 48.1735 55.4414 48.9756V57H54.249V45.377H55.4199L55.4414 47.1172C56.0072 45.8138 56.8952 45.1621 58.1055 45.1621C58.4206 45.1621 58.6605 45.2087 58.8252 45.3018L58.8037 46.4941ZM62.2412 57H61.0381V45.377H62.2412V57ZM60.8662 42.0254C60.8662 41.7819 60.9342 41.5742 61.0703 41.4023C61.2064 41.2305 61.3997 41.1445 61.6504 41.1445C61.901 41.1445 62.0944 41.2305 62.2305 41.4023C62.3737 41.5742 62.4453 41.7819 62.4453 42.0254C62.4453 42.2689 62.3737 42.4766 62.2305 42.6484C62.0944 42.8132 61.901 42.8955 61.6504 42.8955C61.3997 42.8955 61.2064 42.8132 61.0703 42.6484C60.9342 42.4766 60.8662 42.2689 60.8662 42.0254ZM65.0986 50.5977C65.0986 48.9219 65.4782 47.597 66.2373 46.623C66.9964 45.6491 68.0312 45.1621 69.3418 45.1621C70.6595 45.1621 71.6943 45.6419 72.4463 46.6016C73.2054 47.5612 73.5885 48.8825 73.5957 50.5654V51.8008C73.5957 53.5052 73.2126 54.8337 72.4463 55.7861C71.6872 56.7386 70.6595 57.2148 69.3633 57.2148C68.0671 57.2148 67.0394 56.7493 66.2803 55.8184C65.5212 54.8874 65.1273 53.6055 65.0986 51.9727V50.5977ZM66.3018 51.8008C66.3018 53.14 66.5703 54.1927 67.1074 54.959C67.6517 55.7253 68.4036 56.1084 69.3633 56.1084C70.3444 56.1084 71.0928 55.7396 71.6084 55.002C72.1312 54.2643 72.3962 53.208 72.4033 51.833V50.5977C72.4033 49.2585 72.1312 48.2057 71.5869 47.4395C71.0426 46.666 70.2943 46.2793 69.3418 46.2793C68.418 46.2793 67.6839 46.6553 67.1396 47.4072C66.5954 48.1592 66.3161 49.194 66.3018 50.5117V51.8008Z" fill="white"/>
</svg>
